<svg xmlns="http://www.w3.org/2000/svg" width="1024" height="1024" viewBox="0 0 1024 1024">
<g>
<path d="M 590.77 426.78 C579.94,437.32 571.30,444.96 570.27,444.90 C567.10,444.73 514.61,387.71 512.16,381.77 C511.97,381.31 512.99,380.01 514.43,378.88 C515.86,377.75 517.72,375.51 518.55,373.91 C519.37,372.31 520.54,371.00 521.13,371.00 C521.73,371.00 523.55,369.88 525.18,368.50 C526.82,367.12 528.74,366.00 529.45,366.00 C532.48,366.00 540.05,361.73 541.56,359.17 C543.38,356.09 550.30,351.99 553.68,352.00 C556.34,352.00 559.00,349.51 559.00,347.01 C559.00,345.77 559.98,344.94 561.99,344.50 C563.63,344.14 565.23,343.43 565.55,342.92 C565.86,342.42 566.97,342.00 568.01,342.00 C569.05,342.00 570.26,341.43 570.70,340.73 C571.78,339.00 576.61,336.00 578.29,336.00 C579.04,336.00 580.71,334.88 582.00,333.50 C583.29,332.12 585.14,331.00 586.12,331.00 C587.09,331.00 588.16,330.55 588.50,330.00 C588.84,329.45 589.99,329.00 591.06,329.00 C592.13,329.00 593.00,328.56 593.00,328.02 C593.00,327.48 594.14,326.75 595.52,326.40 C596.91,326.06 598.60,325.01 599.27,324.07 C599.95,323.13 601.96,321.51 603.75,320.47 C605.55,319.42 607.00,317.75 607.00,316.73 C607.00,315.61 608.26,314.37 610.27,313.53 C612.07,312.78 614.39,311.23 615.43,310.08 C616.46,308.94 617.83,308.00 618.47,308.00 C619.10,308.00 620.61,306.67 621.81,305.05 C623.21,303.15 625.26,301.85 627.52,301.43 C629.46,301.07 631.60,300.02 632.27,299.10 C633.31,297.68 635.91,296.62 643.77,294.41 C644.46,294.21 645.46,292.91 645.99,291.53 C646.96,288.96 652.36,285.01 654.89,285.00 C655.65,285.00 658.19,283.31 660.53,281.25 C666.37,276.09 673.07,271.36 675.64,270.58 C676.82,270.23 678.34,268.60 679.01,266.97 C679.69,265.34 680.87,264.00 681.64,264.00 C683.83,264.00 689.85,259.68 690.36,257.74 C690.62,256.75 692.16,255.72 693.89,255.37 C695.57,255.04 697.47,254.14 698.10,253.38 C698.73,252.62 699.83,252.00 700.55,252.00 C701.26,252.00 703.18,250.88 704.82,249.50 C706.45,248.12 708.43,247.00 709.22,247.00 C710.01,247.00 711.71,245.88 713.00,244.50 C714.29,243.12 716.10,242.00 717.02,242.00 C719.38,242.00 722.11,238.66 722.93,234.79 C723.60,231.60 723.77,231.51 728.11,231.78 C732.18,232.03 732.88,231.73 735.55,228.53 C737.16,226.59 739.02,225.00 739.66,225.00 C740.31,225.00 741.00,224.49 741.21,223.86 C741.72,222.33 746.00,224.55 746.00,226.34 C746.00,230.34 736.90,254.15 729.36,269.87 C715.41,298.94 699.63,320.49 674.36,344.96 C667.29,351.81 649.80,368.93 635.50,382.99 C621.20,397.05 601.07,416.76 590.77,426.78 ZM 531.52 627.98 C530.58,629.49 529.66,629.26 525.60,626.50 C523.57,625.12 521.32,624.00 520.59,624.00 C519.86,624.00 518.09,623.07 516.65,621.94 C515.21,620.81 512.34,619.66 510.27,619.39 C499.12,617.93 493.15,616.54 490.12,614.72 C486.95,612.80 479.32,610.46 472.50,609.31 C470.85,609.03 467.68,607.96 465.47,606.92 C463.25,605.88 459.02,604.57 456.06,604.01 C453.11,603.45 450.20,602.60 449.60,602.12 C448.99,601.64 445.80,600.94 442.50,600.57 C434.15,599.63 433.00,599.62 428.75,600.42 C419.50,602.16 421.92,598.46 445.35,575.16 C462.05,558.55 465.06,555.96 466.65,556.84 C467.67,557.40 482.52,571.96 499.65,589.18 C523.81,613.47 530.95,621.22 531.47,623.73 C531.84,625.50 531.86,627.41 531.52,627.98 Z" fill="rgb(25,10,143)"/>
<path d="M 745.90 227.27 C745.97,226.89 746.00,226.58 746.00,226.34 C746.00,224.55 741.72,222.33 741.21,223.86 C741.00,224.49 740.31,225.00 739.66,225.00 C739.02,225.00 737.16,226.59 735.55,228.53 C732.88,231.73 732.18,232.03 728.11,231.78 C723.77,231.51 723.60,231.60 722.93,234.79 C722.11,238.66 719.38,242.00 717.02,242.00 C716.10,242.00 714.29,243.12 713.00,244.50 C711.71,245.88 710.01,247.00 709.22,247.00 C708.43,247.00 706.45,248.12 704.82,249.50 C703.18,250.88 701.26,252.00 700.55,252.00 C699.83,252.00 698.73,252.62 698.10,253.38 C697.47,254.14 695.57,255.04 693.89,255.37 C692.16,255.72 690.62,256.75 690.36,257.74 C689.85,259.68 683.83,264.00 681.64,264.00 C680.87,264.00 679.69,265.34 679.01,266.97 C678.34,268.60 676.82,270.23 675.64,270.58 C673.07,271.36 666.37,276.09 660.53,281.25 C658.19,283.31 655.65,285.00 654.89,285.00 C652.36,285.01 646.96,288.96 645.99,291.53 C645.46,292.91 644.46,294.21 643.77,294.41 C635.91,296.62 633.31,297.68 632.27,299.10 C631.60,300.02 629.46,301.07 627.52,301.43 C625.26,301.85 623.21,303.15 621.81,305.05 C620.61,306.67 619.10,308.00 618.47,308.00 C617.83,308.00 616.46,308.94 615.43,310.08 C614.39,311.23 612.07,312.78 610.27,313.53 C608.26,314.37 607.00,315.61 607.00,316.73 C607.00,317.75 605.55,319.42 603.75,320.47 C601.96,321.51 599.95,323.13 599.27,324.07 C598.60,325.01 596.91,326.06 595.52,326.40 C594.14,326.75 593.00,327.48 593.00,328.02 C593.00,328.56 592.13,329.00 591.06,329.00 C589.99,329.00 588.84,329.45 588.50,330.00 C588.16,330.55 587.09,331.00 586.12,331.00 C585.14,331.00 583.29,332.12 582.00,333.50 C580.71,334.88 579.04,336.00 578.29,336.00 C576.61,336.00 571.78,339.00 570.70,340.73 C570.26,341.43 569.05,342.00 568.01,342.00 C566.97,342.00 565.86,342.42 565.55,342.92 C565.23,343.43 563.63,344.14 561.99,344.50 C559.98,344.94 559.00,345.77 559.00,347.01 C559.00,349.51 556.34,352.00 553.68,352.00 C550.30,351.99 543.38,356.09 541.56,359.17 C540.05,361.73 532.48,366.00 529.45,366.00 C528.74,366.00 526.82,367.12 525.18,368.50 C523.55,369.88 521.73,371.00 521.13,371.00 C520.54,371.00 519.37,372.31 518.55,373.91 C517.72,375.51 515.86,377.75 514.43,378.88 C512.99,380.01 511.97,381.31 512.16,381.77 C514.56,387.58 564.87,442.30 570.00,444.81 C568.79,445.27 568.15,444.94 567.83,444.03 C567.65,443.49 553.10,428.52 535.50,410.76 C493.60,368.48 490.45,365.12 482.81,354.49 C476.57,345.81 475.54,343.00 478.61,343.00 C479.41,343.00 480.34,342.21 480.68,341.25 C481.83,338.02 484.29,336.00 487.08,336.00 C489.87,336.00 494.97,332.22 506.30,321.75 C509.12,319.14 512.35,316.99 513.47,316.99 C515.63,316.97 516.70,316.42 524.84,311.16 C527.68,309.33 530.00,307.41 530.00,306.89 C530.00,306.38 531.24,305.46 532.75,304.85 C542.59,300.90 546.93,298.31 548.06,295.72 C548.72,294.20 550.44,292.10 551.88,291.07 C553.32,290.03 557.65,285.97 561.50,282.03 C565.35,278.10 571.54,273.09 575.25,270.90 C578.96,268.70 582.00,266.51 582.00,266.01 C582.00,264.81 591.06,258.96 598.27,255.51 C601.44,253.99 604.28,252.35 604.58,251.87 C604.88,251.39 605.93,251.00 606.92,251.00 C607.91,251.00 610.69,249.27 613.11,247.15 C615.77,244.82 619.03,243.02 621.37,242.58 C625.22,241.87 633.30,237.16 637.90,232.97 C639.21,231.76 641.75,230.17 643.52,229.43 C645.30,228.68 647.02,227.38 647.35,226.54 C647.67,225.69 649.02,225.00 650.34,225.00 C652.66,225.00 659.12,219.92 670.15,209.43 C672.71,206.99 675.27,205.00 675.84,205.00 C676.41,205.00 679.94,203.43 683.69,201.50 C687.44,199.58 691.33,198.01 692.34,198.00 C693.46,198.00 694.62,196.83 695.31,195.00 C695.93,193.34 697.17,192.00 698.08,192.00 C698.99,192.00 700.80,191.16 702.12,190.14 C703.43,189.11 705.53,187.95 706.78,187.56 C708.04,187.17 710.16,185.87 711.51,184.67 C712.85,183.48 716.49,180.70 719.60,178.50 C722.71,176.30 727.46,172.31 730.16,169.63 C734.78,165.03 735.28,164.79 739.02,165.39 C743.49,166.10 746.44,164.08 747.58,159.53 C748.16,157.22 749.01,156.58 750.58,157.25 C751.55,157.67 753.84,152.74 754.53,148.75 C755.82,141.29 757.00,145.24 756.91,156.75 C756.78,174.01 755.06,190.08 752.01,202.50 C751.47,204.70 750.10,210.55 748.97,215.50 C748.08,219.36 747.06,223.30 745.90,227.27 ZM 531.52 627.98 C531.86,627.41 531.84,625.50 531.47,623.73 C530.95,621.22 523.81,613.47 499.65,589.18 C482.52,571.96 467.67,557.40 466.65,556.84 C465.48,556.20 463.56,557.42 456.03,564.66 C460.65,560.12 463.69,557.19 464.03,556.98 C464.69,556.58 466.18,556.48 467.36,556.77 C469.12,557.21 556.63,643.02 561.89,649.47 C562.78,650.56 567.48,655.58 572.34,660.63 C577.21,665.68 581.14,670.09 581.08,670.42 C580.89,671.47 584.39,676.45 586.33,677.88 C587.84,678.99 587.94,679.42 586.85,680.11 C585.01,681.28 582.25,681.22 581.50,680.00 C581.16,679.45 579.84,679.00 578.56,679.00 C577.29,679.00 575.68,678.33 575.00,677.50 C574.32,676.67 572.44,676.00 570.83,676.00 C569.22,676.00 566.46,675.23 564.70,674.30 C562.37,673.06 558.98,672.58 552.26,672.55 C543.50,672.50 542.89,672.36 540.47,669.75 C538.43,667.55 537.04,667.00 533.49,667.00 C530.09,667.00 528.82,666.54 528.00,665.00 C527.22,663.54 525.91,663.00 523.12,663.00 C520.58,663.00 518.71,662.33 517.50,661.00 C516.50,659.90 514.47,659.00 512.98,659.00 C511.49,659.00 509.13,658.10 507.73,657.00 C506.33,655.90 503.68,654.99 501.84,654.97 C500.00,654.95 497.63,654.28 496.56,653.47 C495.49,652.66 492.50,652.00 489.89,652.00 C487.18,652.00 485.00,651.50 484.78,650.83 C484.56,650.19 482.61,649.54 480.44,649.39 C473.78,648.94 469.71,647.93 464.40,645.42 C461.60,644.09 458.84,643.00 458.28,643.00 C455.22,643.00 444.28,638.65 442.94,636.90 C441.82,635.43 439.56,634.61 434.94,633.98 C431.40,633.50 425.80,632.28 422.50,631.26 C418.32,629.98 414.23,629.51 409.00,629.74 C404.88,629.91 400.72,630.07 399.77,630.09 C398.82,630.11 397.79,630.53 397.49,631.02 C397.18,631.51 396.23,631.64 395.37,631.31 C394.50,630.98 393.51,631.16 393.15,631.72 C392.79,632.28 391.38,633.07 390.00,633.48 C387.82,634.13 388.04,633.66 391.75,629.82 C394.09,627.40 396.00,625.19 396.00,624.90 C396.00,624.52 420.17,600.23 439.71,580.81 C421.59,599.07 420.30,602.01 428.75,600.42 C433.00,599.62 434.15,599.63 442.50,600.57 C445.80,600.94 448.99,601.64 449.60,602.12 C450.20,602.60 453.11,603.45 456.06,604.01 C459.02,604.57 463.25,605.88 465.47,606.92 C467.68,607.96 470.85,609.03 472.50,609.31 C479.32,610.46 486.95,612.80 490.12,614.72 C493.15,616.54 499.12,617.93 510.27,619.39 C512.34,619.66 515.21,620.81 516.65,621.94 C518.09,623.07 519.86,624.00 520.59,624.00 C521.32,624.00 523.57,625.12 525.60,626.50 C529.66,629.26 530.58,629.49 531.52,627.98 ZM 706.64 308.50 C698.70,319.69 688.18,331.58 674.36,344.96 C688.74,331.04 700.04,318.06 709.69,304.10 C708.68,305.59 707.67,307.06 706.64,308.50 ZM 730.93 266.53 C733.99,259.90 737.17,252.30 739.83,245.47 C737.18,252.50 734.20,259.57 730.93,266.53 ZM 590.77 426.78 C583.25,434.10 578.13,438.89 574.66,441.71 C578.40,438.53 584.18,433.19 590.77,426.78 Z" fill="rgb(39,16,173)"/>
<path d="M 756.81 150.51 C756.50,144.08 755.55,142.86 754.53,148.75 C753.84,152.74 751.55,157.67 750.58,157.25 C749.01,156.58 748.16,157.22 747.58,159.53 C746.44,164.08 743.49,166.10 739.02,165.39 C735.28,164.79 734.78,165.03 730.16,169.63 C727.46,172.31 722.71,176.30 719.60,178.50 C716.49,180.70 712.85,183.48 711.51,184.67 C710.16,185.87 708.04,187.17 706.78,187.56 C705.53,187.95 703.43,189.11 702.12,190.14 C700.80,191.16 698.99,192.00 698.08,192.00 C697.17,192.00 695.93,193.34 695.31,195.00 C694.62,196.83 693.46,198.00 692.34,198.00 C691.33,198.01 687.44,199.58 683.69,201.50 C679.94,203.43 676.41,205.00 675.84,205.00 C675.27,205.00 672.71,206.99 670.15,209.43 C659.12,219.92 652.66,225.00 650.34,225.00 C649.02,225.00 647.67,225.69 647.35,226.54 C647.02,227.38 645.30,228.68 643.52,229.43 C641.75,230.17 639.21,231.76 637.90,232.97 C633.30,237.16 625.22,241.87 621.37,242.58 C619.03,243.02 615.77,244.82 613.11,247.15 C610.69,249.27 607.91,251.00 606.92,251.00 C605.93,251.00 604.88,251.39 604.58,251.87 C604.28,252.35 601.44,253.99 598.27,255.51 C591.06,258.96 582.00,264.81 582.00,266.01 C582.00,266.51 578.96,268.70 575.25,270.90 C571.54,273.09 565.35,278.10 561.50,282.03 C557.65,285.97 553.32,290.03 551.88,291.07 C550.44,292.10 548.72,294.20 548.06,295.72 C546.93,298.31 542.59,300.90 532.75,304.85 C531.24,305.46 530.00,306.38 530.00,306.89 C530.00,307.41 527.68,309.33 524.84,311.16 C516.70,316.42 515.63,316.97 513.47,316.99 C512.35,316.99 509.12,319.14 506.30,321.75 C494.97,332.22 489.87,336.00 487.08,336.00 C484.29,336.00 481.83,338.02 480.68,341.25 C480.34,342.21 479.41,343.00 478.61,343.00 C475.54,343.00 476.57,345.81 482.81,354.49 C490.45,365.12 493.60,368.48 535.50,410.76 C553.10,428.52 567.65,443.49 567.83,444.03 C568.15,444.94 568.79,445.27 570.00,444.81 L 570.01 444.82 C568.80,445.27 568.15,444.96 567.83,444.07 C567.65,443.56 541.96,417.48 510.75,386.12 C479.54,354.76 454.00,328.63 454.00,328.05 C454.00,327.47 453.07,326.07 451.94,324.94 C449.26,322.26 444.00,313.33 444.00,311.46 C444.00,310.66 444.89,310.00 445.99,310.00 C447.21,310.00 448.92,308.50 450.45,306.08 C453.37,301.45 454.29,300.80 458.97,300.04 C461.65,299.61 462.58,298.93 462.82,297.24 C463.08,295.44 463.79,295.00 466.42,295.00 C468.23,295.00 471.01,294.59 472.60,294.08 C474.20,293.58 476.71,292.90 478.20,292.58 C479.80,292.23 481.43,290.88 482.21,289.25 C483.07,287.45 484.53,286.34 486.47,286.01 C488.86,285.59 489.55,284.86 490.11,282.13 C491.14,277.09 494.01,274.80 500.01,274.23 C503.66,273.87 505.88,273.03 507.55,271.36 C508.85,270.06 510.79,269.00 511.86,269.00 C513.02,269.00 514.63,267.59 515.87,265.50 C517.27,263.13 518.67,262.00 520.22,262.00 C521.47,261.99 523.79,260.96 525.37,259.69 C527.99,257.60 528.11,257.25 526.67,255.81 C524.61,253.75 525.51,253.00 530.01,253.00 C532.42,253.00 534.31,252.31 535.50,251.00 C536.50,249.90 537.84,249.00 538.49,249.00 C539.64,249.00 545.29,243.88 549.75,238.79 C550.98,237.38 553.46,235.95 555.25,235.61 C557.19,235.24 560.70,232.96 563.96,229.95 C568.84,225.46 569.30,224.71 568.20,222.94 C567.12,221.21 567.27,220.85 569.40,220.04 C570.73,219.53 572.12,218.19 572.48,217.06 C573.39,214.20 576.38,212.83 581.76,212.83 C584.87,212.83 585.89,212.54 584.92,211.93 C583.83,211.24 584.03,211.03 585.75,211.02 C587.43,211.00 588.00,210.41 588.00,208.70 C588.00,205.62 589.80,204.00 593.23,204.00 C594.83,204.00 596.31,203.34 596.64,202.50 C596.95,201.68 598.37,201.00 599.78,201.00 C601.19,201.00 603.05,200.38 603.92,199.63 C607.46,196.55 622.10,186.99 625.31,185.64 C628.05,184.50 628.94,183.42 629.66,180.36 C630.33,177.52 631.09,176.50 632.52,176.50 C633.67,176.50 634.62,175.68 634.85,174.50 C635.06,173.40 635.56,172.27 635.95,172.00 C636.35,171.73 637.18,170.60 637.81,169.50 C638.89,167.59 638.94,167.62 639.05,170.00 C639.16,172.40 639.22,172.38 640.54,169.37 C641.42,167.34 642.89,165.99 644.70,165.54 C648.70,164.54 650.47,162.93 648.80,161.82 C647.82,161.18 648.31,160.23 650.77,157.98 C653.56,155.43 654.82,155.00 659.52,155.00 C662.68,155.00 665.00,154.56 665.00,153.95 C665.00,153.37 666.68,152.20 668.73,151.34 C670.79,150.48 673.06,148.93 673.79,147.89 C674.52,146.85 675.96,146.00 677.00,146.00 C678.03,146.00 679.16,145.55 679.50,145.00 C679.84,144.44 682.70,142.24 685.84,140.11 C688.99,137.97 694.47,133.38 698.03,129.90 C701.59,126.42 705.50,123.11 706.73,122.54 C708.39,121.77 708.72,121.12 708.02,120.00 C707.25,118.78 703.66,118.44 688.54,118.15 C678.24,117.96 670.00,117.40 670.00,116.89 C670.00,116.35 687.56,116.08 713.25,116.24 L 756.50 116.50 L 756.77 140.70 C756.81,144.12 756.82,147.39 756.81,150.51 ZM 662.23 750.75 C663.12,752.54 663.77,753.96 663.67,753.92 C663.58,753.88 662.15,753.36 660.50,752.78 C657.01,751.54 652.35,748.48 649.50,745.55 C646.82,742.81 631.48,734.00 629.37,734.00 C627.85,734.00 619.26,730.06 613.00,726.49 C611.62,725.71 608.36,724.80 605.75,724.47 C602.99,724.13 599.86,722.92 598.25,721.59 C596.74,720.33 594.38,719.04 593.00,718.72 C591.62,718.40 588.70,717.62 586.50,716.99 C584.30,716.36 580.69,715.52 578.48,715.12 C576.27,714.72 572.67,713.43 570.48,712.26 C568.29,711.09 564.70,709.80 562.50,709.40 C560.30,708.99 558.28,708.59 558.00,708.51 C557.72,708.43 555.47,707.81 553.00,707.14 C547.65,705.69 544.15,704.13 541.72,702.11 C540.74,701.30 536.92,700.27 533.23,699.83 C529.35,699.36 525.45,698.23 523.98,697.15 C521.34,695.19 517.88,694.39 507.00,693.21 C502.14,692.68 499.58,691.80 496.86,689.72 C494.67,688.04 491.09,686.57 487.86,686.01 C484.91,685.51 480.93,684.63 479.01,684.05 C477.09,683.47 473.71,682.99 471.51,682.97 C469.30,682.95 466.63,682.28 465.56,681.47 C464.49,680.66 461.66,680.00 459.26,680.00 C456.86,680.00 453.63,679.34 452.07,678.54 C448.87,676.88 442.85,674.64 435.50,672.36 C432.75,671.51 429.02,670.18 427.22,669.41 C425.41,668.63 423.10,668.00 422.08,668.00 C421.05,668.00 418.26,667.11 415.86,666.02 C413.46,664.93 410.01,664.03 408.18,664.02 C404.73,664.00 401.21,662.55 399.50,660.44 C398.23,658.88 375.41,657.43 373.69,658.81 C373.04,659.33 369.47,660.45 365.77,661.28 C361.62,662.21 357.83,663.81 355.89,665.44 C352.66,668.16 350.74,668.22 352.97,665.54 C353.66,664.70 354.63,664.27 355.11,664.57 C355.60,664.87 356.00,664.39 356.00,663.50 C356.00,662.61 356.45,662.16 357.01,662.50 C357.56,662.85 358.32,662.32 358.70,661.34 C359.08,660.36 367.74,651.46 377.94,641.56 C388.15,631.67 411.43,608.75 429.67,590.64 C437.13,583.24 444.12,576.33 449.82,570.73 C448.45,572.08 446.97,573.55 445.35,575.16 C443.31,577.19 441.43,579.07 439.71,580.81 C420.17,600.23 396.00,624.52 396.00,624.90 C396.00,625.19 394.09,627.40 391.75,629.82 C388.04,633.66 387.82,634.13 390.00,633.48 C391.38,633.07 392.79,632.28 393.15,631.72 C393.51,631.16 394.50,630.98 395.37,631.31 C396.23,631.64 397.18,631.51 397.49,631.02 C397.79,630.53 398.82,630.11 399.77,630.09 C400.72,630.07 404.88,629.91 409.00,629.74 C414.23,629.51 418.32,629.98 422.50,631.26 C425.80,632.28 431.40,633.50 434.94,633.98 C439.56,634.61 441.82,635.43 442.94,636.90 C444.28,638.65 455.22,643.00 458.28,643.00 C458.84,643.00 461.60,644.09 464.40,645.42 C469.71,647.93 473.78,648.94 480.44,649.39 C482.61,649.54 484.56,650.19 484.78,650.83 C485.00,651.50 487.18,652.00 489.89,652.00 C492.50,652.00 495.49,652.66 496.56,653.47 C497.63,654.28 500.00,654.95 501.84,654.97 C503.68,654.99 506.33,655.90 507.73,657.00 C509.13,658.10 511.49,659.00 512.98,659.00 C514.47,659.00 516.50,659.90 517.50,661.00 C518.71,662.33 520.58,663.00 523.12,663.00 C525.91,663.00 527.22,663.54 528.00,665.00 C528.82,666.54 530.09,667.00 533.49,667.00 C537.04,667.00 538.43,667.55 540.47,669.75 C542.89,672.36 543.50,672.50 552.26,672.55 C558.98,672.58 562.37,673.06 564.70,674.30 C566.46,675.23 569.22,676.00 570.83,676.00 C572.44,676.00 574.32,676.67 575.00,677.50 C575.68,678.33 577.29,679.00 578.56,679.00 C579.84,679.00 581.16,679.45 581.50,680.00 C582.25,681.22 585.01,681.28 586.85,680.11 C587.94,679.42 587.84,678.99 586.33,677.88 C584.39,676.45 580.89,671.47 581.08,670.42 C581.14,670.09 577.21,665.68 572.34,660.63 C567.48,655.58 562.78,650.56 561.89,649.47 C560.75,648.07 555.71,642.92 548.52,635.70 C649.39,735.54 660.06,746.41 662.23,750.75 ZM 755.43 888.43 C754.03,889.83 745.62,890.00 677.93,890.00 C611.10,890.00 602.00,889.82 602.00,888.50 C602.00,887.36 603.36,886.97 607.75,886.87 C610.91,886.80 620.25,886.58 628.50,886.39 C671.87,885.38 694.63,885.29 696.84,886.13 C698.44,886.74 700.47,886.67 702.69,885.94 C705.82,884.90 720.85,883.84 730.63,883.95 C735.93,884.01 737.82,882.02 736.30,877.98 C735.70,876.40 735.47,874.86 735.78,874.56 C737.11,873.22 739.13,874.20 740.05,876.64 C740.60,878.09 741.35,878.98 741.71,878.62 C742.07,878.26 742.94,879.32 743.64,880.98 C744.62,883.33 745.53,884.00 747.70,883.98 C752.03,883.96 752.79,882.95 753.55,876.24 C754.04,871.96 754.69,870.00 755.63,870.00 C757.74,870.00 757.56,886.30 755.43,888.43 ZM 514.82 602.35 C492.99,580.92 471.13,559.77 467.78,557.06 C469.79,558.01 472.41,560.20 476.06,563.88 C478.86,566.70 494.86,582.58 514.82,602.35 ZM 466.65 556.65 C465.63,556.53 464.56,556.66 464.03,556.98 C464.79,556.51 465.63,556.39 466.65,556.65 ZM 752.02 202.50 C751.47,204.70 750.10,210.55 748.97,215.50 C750.10,210.55 751.47,204.70 752.01,202.50 C752.90,198.88 753.68,194.96 754.33,190.79 C753.69,194.95 752.93,198.82 752.02,202.50 ZM 458.88 561.87 C458.02,562.71 457.07,563.64 456.03,564.66 C455.62,565.05 455.20,565.46 454.76,565.89 C456.30,564.38 457.68,563.03 458.88,561.87 Z" fill="rgb(50,23,196)"/>
<path d="M 590.77 426.78 C591.24,426.32 591.73,425.85 592.24,425.36 C590.72,426.84 589.34,428.18 588.14,429.36 L 570.84 446.21 L 610.17 485.74 C631.80,507.48 651.41,527.07 653.75,529.26 C658.27,533.51 659.08,535.27 656.29,534.79 C653.16,534.26 653.72,537.64 656.98,538.99 C658.66,539.69 660.33,540.72 660.68,541.28 C661.05,541.89 660.81,542.00 660.08,541.55 C658.63,540.65 660.58,544.30 663.00,547.01 C663.83,547.93 665.23,550.04 666.12,551.69 C667.22,553.73 668.77,554.90 670.97,555.34 C675.19,556.19 676.56,555.28 674.50,553.00 C671.69,549.89 674.55,549.92 677.52,553.03 C680.36,555.99 680.37,558.38 677.54,556.03 C676.31,555.01 675.92,555.04 675.49,556.18 C674.48,558.81 675.67,562.33 678.28,564.41 C679.72,565.56 681.48,568.26 682.20,570.40 C682.91,572.55 684.17,574.62 685.00,574.99 C685.83,575.37 687.40,576.21 688.50,576.86 C689.60,577.50 691.72,578.51 693.21,579.10 C695.68,580.07 697.30,582.50 696.92,584.65 C696.27,588.25 700.89,594.36 703.51,593.36 C704.48,592.98 704.96,593.93 705.18,596.66 C705.44,599.77 706.06,600.75 708.49,601.91 C712.38,603.77 715.35,607.59 716.09,611.67 C716.62,614.63 716.22,615.32 711.73,619.21 C709.01,621.57 703.87,626.33 700.31,629.78 C696.75,633.23 692.70,636.80 691.32,637.71 C689.05,639.20 686.48,642.49 682.00,649.64 C681.09,651.08 679.72,651.92 678.52,651.76 C677.29,651.60 676.42,652.17 676.19,653.28 C675.74,655.56 672.10,659.42 669.50,660.40 C667.54,661.13 667.54,661.17 669.40,662.54 C671.21,663.88 671.18,663.98 668.58,664.97 C667.09,665.54 665.51,666.00 665.06,666.00 C663.69,666.00 656.00,674.87 656.00,676.45 C656.00,677.28 654.76,678.72 653.25,679.66 C651.74,680.60 649.52,682.23 648.32,683.29 C647.13,684.35 645.66,684.91 645.07,684.54 C642.84,683.16 640.00,685.06 640.00,687.91 C640.00,689.46 639.07,691.53 637.91,692.58 C634.02,696.10 633.51,698.12 636.03,700.02 C639.25,702.45 637.71,704.34 633.14,703.56 C625.42,702.23 624.00,701.81 624.51,700.99 C624.80,700.52 624.56,699.84 623.98,699.48 C623.39,699.13 623.18,698.00 623.51,696.98 C624.20,694.80 620.45,690.00 618.06,690.00 C617.19,690.00 615.63,688.88 614.60,687.50 C612.67,684.93 608.65,684.14 607.44,686.09 C607.07,686.69 608.40,688.85 610.39,690.88 C612.37,692.92 614.00,695.11 614.00,695.75 C614.00,696.40 616.25,698.39 619.00,700.19 C621.75,701.99 624.00,703.70 624.00,703.98 C624.00,704.27 625.13,705.81 626.50,707.41 C627.88,709.00 629.00,710.69 629.00,711.16 C629.00,711.62 629.68,712.00 630.51,712.00 C631.35,712.00 632.84,713.33 633.83,714.95 C634.81,716.58 640.90,723.39 647.34,730.09 C653.79,736.79 658.81,742.53 658.50,742.84 C658.19,743.14 653.37,738.92 647.79,733.45 L 637.65 723.50 L 645.57 732.12 C646.77,733.42 648.02,734.75 649.24,736.03 C635.60,721.99 607.45,694.03 548.52,635.70 C539.53,626.70 527.18,614.48 514.82,602.35 L 514.82 602.34 C494.86,582.58 478.86,566.70 476.06,563.88 C472.41,560.20 469.79,558.01 467.78,557.06 C467.56,556.89 467.42,556.79 467.36,556.77 C467.13,556.72 466.89,556.68 466.65,556.65 C465.93,556.46 465.30,556.47 464.72,556.66 C465.34,555.75 464.74,553.94 463.03,551.77 C461.95,550.39 461.35,548.98 461.70,548.63 C462.05,548.28 461.32,546.90 460.07,545.57 C458.81,544.24 458.07,542.70 458.41,542.14 C458.75,541.59 458.57,540.85 458.00,540.50 C456.22,539.40 457.97,537.91 459.85,538.92 C460.80,539.43 462.44,539.77 463.48,539.67 C464.56,539.57 465.88,540.47 466.53,541.74 C467.16,542.98 467.90,543.76 468.18,543.49 C468.45,543.21 469.50,543.89 470.49,544.99 C473.10,547.87 474.70,547.47 475.24,543.81 C475.90,539.33 475.16,537.28 472.67,536.63 C470.98,536.18 470.79,535.81 471.77,534.83 C472.45,534.15 473.00,532.82 473.00,531.87 C473.00,530.92 474.35,529.17 476.00,528.00 C477.65,526.83 479.00,525.24 479.00,524.48 C479.00,523.71 480.01,522.01 481.25,520.69 C482.49,519.37 485.58,516.09 488.12,513.40 C490.65,510.70 493.35,507.32 494.12,505.88 C496.44,501.49 501.29,496.61 506.19,493.73 C508.76,492.23 511.67,489.96 512.68,488.69 C516.40,483.95 519.94,482.54 529.32,482.00 L 538.25 481.50 L 539.37 478.00 C540.25,475.27 541.11,474.43 543.25,474.18 C546.81,473.77 548.18,471.08 547.80,465.22 C547.54,461.20 547.17,460.45 545.25,460.18 C542.21,459.75 542.42,458.01 546.00,454.00 C547.65,452.15 549.00,450.27 549.00,449.82 C549.00,449.37 550.35,449.00 552.00,449.00 C557.22,449.00 555.89,445.48 547.76,437.77 C543.55,433.78 540.96,430.62 541.56,430.21 C543.37,428.97 542.98,425.06 540.94,423.97 C539.88,423.40 538.04,421.04 536.86,418.72 C535.68,416.40 530.37,410.23 525.06,405.00 C519.75,399.77 511.09,390.55 505.82,384.50 C500.55,378.45 491.45,369.03 485.62,363.57 C479.78,358.10 475.00,353.15 475.00,352.57 C475.00,351.99 485.00,361.41 497.21,373.51 C509.43,385.60 519.22,395.18 518.96,394.79 C518.07,393.42 467.57,343.00 467.09,343.00 C466.83,343.00 468.13,344.58 470.00,346.50 C471.87,348.42 473.12,350.00 472.79,350.00 C472.11,350.00 421.75,299.10 408.98,285.50 C404.33,280.55 395.79,271.52 390.01,265.44 C379.67,254.57 364.00,236.54 364.00,235.52 C364.00,235.23 365.27,235.00 366.83,235.00 C369.88,235.00 372.86,232.29 374.78,227.77 C375.68,225.65 376.84,224.89 379.93,224.40 C382.12,224.05 384.67,222.91 385.61,221.88 C386.54,220.85 387.86,220.00 388.53,220.00 C391.11,220.00 400.94,214.98 401.91,213.17 C402.47,212.13 404.40,210.73 406.21,210.07 C408.02,209.42 411.44,207.92 413.82,206.76 C417.90,204.77 418.29,204.74 420.92,206.29 C423.61,207.88 423.74,207.86 424.75,205.64 C425.40,204.22 427.64,202.68 430.65,201.60 C439.06,198.56 439.76,198.00 440.91,193.45 C442.00,189.10 444.23,186.00 446.26,186.00 C447.93,186.00 458.98,173.74 458.99,171.87 C459.00,169.61 460.84,168.38 465.46,167.55 C468.41,167.01 470.46,165.68 473.46,162.32 C477.95,157.31 481.69,155.00 485.32,155.00 C486.64,155.00 488.81,154.15 490.12,153.12 C491.43,152.09 493.41,151.07 494.50,150.86 C495.75,150.62 496.61,149.54 496.80,147.99 C497.40,142.95 499.15,140.00 501.55,140.00 C503.85,140.00 507.00,137.66 507.00,135.95 C507.00,135.46 508.46,134.30 510.25,133.39 C512.04,132.47 514.57,130.66 515.89,129.36 C517.20,128.06 519.10,127.00 520.10,127.00 C521.11,127.00 522.41,126.10 523.00,125.00 C523.73,123.64 523.74,123.00 523.04,123.00 C520.52,123.00 522.38,121.04 526.50,119.35 C528.97,118.33 530.99,117.16 531.00,116.75 C531.00,116.34 554.17,116.00 582.50,116.00 C629.50,116.00 641.23,116.59 630.00,118.38 C627.80,118.74 626.00,119.47 626.00,120.01 C626.00,120.56 624.54,121.03 622.75,121.07 C620.03,121.13 619.82,121.28 621.50,122.00 C623.35,122.79 623.31,122.87 621.00,123.03 C619.62,123.12 621.39,123.83 624.92,124.60 C632.03,126.16 632.49,126.39 631.54,127.93 C631.17,128.54 627.62,129.00 623.38,129.00 C616.23,129.00 615.75,129.15 612.97,132.19 C611.37,133.95 609.76,135.09 609.40,134.73 C608.33,133.66 604.80,136.03 605.34,137.45 C605.62,138.16 604.75,139.33 603.43,140.04 C602.10,140.75 600.33,142.38 599.49,143.66 C598.50,145.17 596.58,146.20 593.98,146.62 C591.73,146.98 590.00,147.81 590.00,148.55 C590.00,150.33 584.26,153.69 579.79,154.52 C576.03,155.22 574.44,156.49 572.53,160.31 C571.96,161.47 570.36,162.67 568.99,162.99 C567.62,163.31 566.06,164.56 565.51,165.78 C564.97,167.00 563.96,168.00 563.26,168.00 C562.57,168.00 562.00,168.64 562.00,169.42 C562.00,170.99 556.39,177.00 554.92,177.00 C554.42,177.00 554.00,177.43 554.00,177.95 C554.00,178.47 552.78,179.48 551.29,180.20 C549.80,180.91 548.32,182.62 548.00,184.00 C547.51,186.05 546.57,186.65 542.67,187.36 C538.54,188.12 537.67,188.72 535.98,192.03 C534.54,194.87 533.21,196.01 530.77,196.55 C528.97,196.95 526.91,198.11 526.19,199.14 C524.92,200.96 519.00,204.04 514.00,205.48 C509.56,206.77 507.00,208.95 507.00,211.44 C507.00,214.89 506.00,217.00 504.36,217.00 C503.57,217.00 501.93,217.65 500.71,218.45 C499.50,219.25 496.83,220.08 494.78,220.31 C491.24,220.70 484.00,225.15 484.00,226.94 C484.00,227.40 482.50,228.06 480.68,228.40 C477.61,228.98 471.00,234.19 471.00,236.03 C471.00,236.47 469.25,237.12 467.11,237.48 C463.90,238.02 463.31,238.47 463.73,240.07 C464.13,241.61 463.71,242.00 461.62,242.00 C460.18,242.00 459.00,242.47 459.00,243.05 C459.00,243.63 457.42,244.76 455.50,245.56 C453.21,246.52 452.00,247.70 452.00,248.96 C452.00,251.14 448.46,254.00 445.75,254.00 C444.76,254.00 443.54,255.09 443.03,256.41 C442.36,258.19 440.60,259.30 436.31,260.66 C431.16,262.29 430.54,262.77 430.84,264.89 C431.12,266.90 430.84,267.19 429.02,266.72 C427.66,266.36 425.51,267.05 423.18,268.58 C418.32,271.79 410.05,279.25 410.02,280.45 C409.98,282.28 415.52,289.59 422.97,297.52 C444.94,320.93 463.43,339.91 463.84,339.49 C464.01,339.33 463.16,338.09 461.74,336.36 C471.61,346.59 489.92,365.19 510.75,386.12 C541.96,417.48 567.65,443.56 567.83,444.07 C568.15,444.96 568.80,445.27 570.01,444.82 C570.12,444.87 570.21,444.90 570.27,444.90 C570.67,444.92 572.24,443.77 574.66,441.71 L 574.66 441.71 C578.13,438.89 583.25,434.10 590.77,426.78 ZM 433.00 888.61 C433.00,889.79 420.62,890.00 352.25,889.97 C299.26,889.95 270.90,889.59 269.75,888.92 C268.16,887.99 268.01,885.80 268.06,865.20 C268.10,852.72 268.52,839.35 268.99,835.50 C269.47,831.65 270.32,824.79 270.86,820.26 C271.41,815.73 272.31,810.56 272.85,808.76 C273.40,806.97 274.35,803.03 274.96,800.00 C276.84,790.67 277.07,789.82 280.71,778.50 C282.87,771.76 285.12,766.69 286.51,765.40 C288.88,763.20 290.61,757.79 289.50,756.01 C288.70,754.71 299.13,732.62 304.38,724.50 C317.43,704.28 322.46,697.44 332.40,686.35 C336.36,681.94 338.72,680.69 337.60,683.59 C336.35,686.87 338.32,686.95 344.13,683.85 C349.78,680.84 350.39,680.72 354.81,681.79 C357.39,682.41 362.65,683.65 366.50,684.55 C374.76,686.48 388.40,691.59 392.15,694.18 C393.78,695.29 396.59,696.00 399.42,696.00 C401.95,696.00 404.81,696.41 405.76,696.90 C409.52,698.85 415.95,700.23 418.43,699.61 C419.86,699.25 423.39,699.61 426.27,700.42 C429.14,701.23 435.91,702.45 441.30,703.13 C447.97,703.96 451.78,704.94 453.21,706.18 C454.36,707.18 455.57,708.03 455.90,708.07 C461.64,708.72 464.05,709.43 467.61,711.51 C470.65,713.29 473.32,714.00 477.02,714.00 C481.11,714.00 483.55,714.77 488.82,717.72 C494.91,721.12 496.16,721.44 503.91,721.58 C511.37,721.71 512.58,721.99 514.18,723.98 C515.82,726.00 516.00,726.04 516.03,724.36 C516.06,722.69 516.16,722.67 517.03,724.16 C517.62,725.18 520.00,726.09 523.23,726.53 C537.00,728.42 546.11,730.90 549.59,733.68 C553.47,736.77 557.78,740.88 559.79,743.39 C560.57,744.37 562.59,745.00 564.92,745.00 C569.82,745.00 571.12,746.54 570.08,751.15 C568.82,756.74 565.87,760.92 562.25,762.23 C560.35,762.91 558.12,764.82 557.01,766.71 C555.94,768.52 554.35,770.00 553.48,770.00 C550.91,770.00 548.75,776.56 549.51,782.08 L 550.17 786.88 L 546.34 787.57 C544.23,787.95 541.69,789.11 540.71,790.13 C539.73,791.16 538.50,792.00 537.99,792.00 C537.48,792.00 536.04,793.78 534.78,795.95 C533.53,798.13 531.51,800.16 530.28,800.46 C529.06,800.77 527.52,802.03 526.87,803.26 C526.21,804.49 522.62,808.33 518.89,811.79 C515.16,815.26 511.84,818.94 511.51,819.97 C511.18,821.00 508.57,824.40 505.71,827.52 C500.81,832.85 499.03,836.44 498.66,841.75 C498.55,843.30 497.86,844.00 496.45,844.00 C493.95,844.00 492.00,845.81 492.00,848.13 C492.00,850.20 487.44,854.00 484.95,854.00 C483.29,854.00 475.00,863.25 475.00,865.10 C475.00,865.56 474.25,865.65 473.33,865.29 C472.06,864.81 471.81,865.06 472.29,866.32 C472.75,867.52 472.25,868.15 470.46,868.60 C469.11,868.94 468.00,869.62 468.00,870.11 C468.00,870.60 462.15,871.00 455.00,871.00 C447.00,871.00 442.00,871.38 442.00,872.00 C442.00,872.57 439.00,873.00 435.00,873.00 C431.00,873.00 428.00,873.43 428.00,874.00 C428.00,874.55 428.79,875.01 429.75,875.02 C435.53,875.07 435.17,880.98 429.23,883.70 C427.18,884.64 424.15,885.74 422.50,886.15 C420.48,886.65 421.18,886.74 424.62,886.43 C430.42,885.90 433.00,886.57 433.00,888.61 ZM 501.67 514.33 C502.72,515.38 503.73,515.13 505.48,513.38 C506.64,512.21 507.01,510.33 506.80,506.63 C506.52,501.86 506.31,501.48 503.75,501.18 C501.00,500.87 501.00,500.88 501.00,507.27 C501.00,510.79 501.30,513.97 501.67,514.33 ZM 509.49 496.99 C510.48,498.59 514.00,498.16 514.69,496.36 C515.28,494.84 512.79,492.00 510.88,492.00 C509.81,492.00 508.76,495.80 509.49,496.99 ZM 504.75 814.42 C505.16,814.83 506.26,813.44 507.20,811.33 C508.97,807.33 508.30,805.29 505.57,806.34 C503.94,806.96 503.33,812.99 504.75,814.42 ZM 317.00 749.56 C317.00,750.90 317.46,752.00 318.03,752.00 C319.43,752.00 320.99,747.71 319.98,746.64 C318.69,745.25 317.00,746.91 317.00,749.56 ZM 609.57 129.11 C610.25,130.22 612.71,130.27 613.38,129.20 C613.65,128.76 613.48,127.78 613.01,127.02 C612.30,125.87 611.88,125.86 610.59,126.93 C609.73,127.64 609.27,128.63 609.57,129.11 ZM 449.19 529.23 C449.91,529.47 450.01,529.88 449.43,530.23 C448.11,531.05 444.81,529.11 445.54,527.94 C445.86,527.42 446.79,527.00 447.62,527.00 C448.44,527.00 448.86,527.41 448.55,527.91 C448.24,528.42 448.53,529.01 449.19,529.23 ZM 662.23 750.75 C661.41,749.11 659.37,746.53 651.70,738.57 C653.92,740.83 655.82,742.67 656.78,743.48 C658.59,745.00 660.91,747.98 661.94,750.12 C662.25,750.76 662.54,751.36 662.79,751.89 C662.61,751.54 662.43,751.15 662.23,750.75 ZM 464.98 341.48 C466.42,343.21 467.00,343.39 467.00,342.11 C467.00,341.62 466.26,340.93 465.36,340.58 C463.99,340.06 463.92,340.20 464.98,341.48 ZM 452.00 182.00 C452.00,182.55 452.45,183.00 453.00,183.00 C453.55,183.00 454.00,182.55 454.00,182.00 C454.00,181.45 453.55,181.00 453.00,181.00 C452.45,181.00 452.00,181.45 452.00,182.00 ZM 652.00 678.00 C652.00,678.55 652.45,679.00 653.00,679.00 C653.55,679.00 654.00,678.55 654.00,678.00 C654.00,677.45 653.55,677.00 653.00,677.00 C652.45,677.00 652.00,677.45 652.00,678.00 ZM 475.00 351.56 C475.00,351.80 474.55,352.00 474.00,352.00 C473.45,352.00 473.00,351.52 473.00,350.94 C473.00,350.36 473.45,350.16 474.00,350.50 C474.55,350.84 475.00,351.32 475.00,351.56 ZM 453.82 327.43 C450.22,323.37 449.38,322.04 446.94,317.89 C445.90,316.13 445.15,314.71 444.68,313.58 C446.19,316.97 449.85,322.85 451.94,324.94 C452.77,325.77 453.49,326.74 453.82,327.43 ZM 438.87 581.53 C435.93,584.44 432.84,587.49 429.67,590.64 C411.43,608.75 388.16,631.66 377.95,641.56 C388.16,631.66 411.48,608.70 429.77,590.53 C432.91,587.42 435.96,584.40 438.87,581.53 ZM 444.25 310.75 C444.49,310.23 445.07,310.00 445.99,310.00 C445.24,310.00 444.59,310.30 444.25,310.75 ZM 663.67 753.92 C663.66,753.92 663.66,753.92 663.66,753.92 C663.57,753.88 662.17,753.37 660.53,752.79 C662.13,753.36 663.52,753.86 663.67,753.92 Z" fill="rgb(68,35,234)"/>
<path d="M 0.00 0.00 L 1024.00 0.00 L 1024.00 1024.00 L 0.00 1024.00 ZM 745.90 227.27 C747.06,223.30 748.08,219.36 748.97,215.50 C750.10,210.55 751.47,204.70 752.02,202.50 C752.93,198.82 753.69,194.96 754.33,190.79 L 754.33 190.79 C755.93,180.62 756.82,168.99 756.91,156.75 C756.93,154.32 756.89,152.23 756.81,150.51 C756.82,147.39 756.81,144.12 756.77,140.70 L 756.50 116.50 L 713.25 116.24 C687.56,116.08 670.00,116.35 670.00,116.89 C670.00,117.11 671.51,117.34 674.04,117.54 C671.52,117.34 670.00,117.12 670.00,116.90 C670.00,116.40 662.07,116.00 652.00,116.00 C642.10,116.00 634.00,116.39 634.00,116.87 C634.00,116.96 633.93,117.07 633.81,117.17 C632.17,116.31 616.64,116.00 582.50,116.00 C554.17,116.00 531.00,116.34 531.00,116.75 C531.00,116.34 480.71,115.97 419.25,115.94 C357.79,115.91 298.73,115.80 288.00,115.69 L 268.50 115.50 L 268.21 213.00 C267.91,312.47 267.97,314.57 271.71,328.00 C277.94,350.34 288.23,370.08 306.11,394.00 C308.38,397.02 343.11,432.12 383.30,472.00 C423.49,511.88 457.27,545.51 458.36,546.75 C459.46,547.99 460.73,549.00 461.18,549.00 C461.35,549.00 461.49,548.98 461.60,548.94 C461.60,549.51 462.16,550.65 463.03,551.77 C464.74,553.94 465.34,555.75 464.72,556.66 C464.39,556.81 464.18,556.89 464.03,556.98 C463.76,557.15 461.88,558.95 458.88,561.87 C457.68,563.03 456.30,564.38 454.76,565.89 C453.31,567.29 451.67,568.90 449.82,570.73 C446.55,573.95 442.84,577.60 438.87,581.53 L 438.86 581.54 C435.95,584.41 432.91,587.42 429.77,590.53 C411.99,608.19 389.47,630.37 378.84,640.69 C378.53,640.99 378.24,641.28 377.95,641.56 L 377.94 641.56 C368.66,650.56 360.66,658.74 359.00,660.89 L 359.00 660.88 C359.00,660.33 358.55,660.16 358.00,660.50 C357.45,660.84 357.00,661.57 357.00,662.12 C357.00,662.34 357.07,662.49 357.19,662.58 C357.13,662.57 357.07,662.54 357.01,662.50 C356.45,662.16 356.00,662.61 356.00,663.50 C356.00,664.39 355.60,664.87 355.11,664.57 C354.63,664.27 353.66,664.70 352.97,665.54 C351.81,666.94 351.77,667.59 352.46,667.51 C352.25,667.56 352.08,667.55 351.98,667.49 C351.51,667.20 348.04,670.07 344.27,673.87 C339.99,678.17 338.24,680.28 337.73,682.08 C337.19,681.70 335.20,683.24 332.40,686.35 C322.46,697.44 317.43,704.28 304.38,724.50 C299.13,732.62 288.70,754.71 289.50,756.01 C289.52,756.04 289.54,756.07 289.56,756.11 C289.46,756.04 289.33,756.00 289.19,756.00 C288.19,756.00 285.00,762.50 285.00,764.53 C285.00,765.75 285.43,766.18 286.03,765.95 C284.64,767.80 282.64,772.49 280.71,778.50 C277.07,789.82 276.84,790.67 274.96,800.00 C274.35,803.03 273.40,806.97 272.85,808.76 C272.31,810.56 271.41,815.73 270.86,820.26 C270.32,824.79 269.47,831.65 268.99,835.50 C268.52,839.35 268.10,852.72 268.06,865.20 C268.01,885.80 268.16,887.99 269.75,888.92 C270.90,889.59 299.26,889.95 352.25,889.97 C420.62,890.00 433.00,889.79 433.00,888.61 C433.00,889.79 445.94,890.00 517.50,890.00 C591.94,890.00 602.00,889.82 602.00,888.50 C602.00,889.82 611.10,890.00 677.93,890.00 C745.62,890.00 754.03,889.83 755.43,888.43 C757.56,886.30 757.74,870.00 755.63,870.00 C755.35,870.00 755.09,870.18 754.86,870.54 C755.09,870.18 755.34,870.00 755.61,870.00 C756.73,870.00 756.95,854.64 756.92,778.25 C756.90,727.79 756.49,683.35 756.02,679.50 C754.93,670.72 753.21,662.11 752.02,659.50 C751.52,658.40 750.83,656.06 750.49,654.30 C749.46,649.07 744.50,636.93 739.06,626.38 C732.19,613.06 730.49,610.31 723.50,601.27 C716.23,591.86 680.94,555.92 679.71,556.68 C679.69,556.69 679.66,556.71 679.63,556.72 C679.80,556.13 679.10,554.67 677.52,553.03 C675.92,551.35 674.35,550.57 673.68,550.70 C674.14,549.19 660.97,536.71 657.20,534.87 C658.80,534.77 657.68,532.95 653.75,529.26 C651.41,527.07 631.80,507.48 610.17,485.74 L 570.84 446.21 L 588.14 429.36 C589.34,428.18 590.72,426.84 592.24,425.36 C602.89,414.98 621.85,396.41 635.50,382.99 C649.80,368.93 667.29,351.81 674.36,344.96 C688.18,331.58 698.70,319.69 706.64,308.50 C707.67,307.06 708.68,305.59 709.69,304.10 L 709.69 304.10 C716.99,293.53 723.35,282.40 729.36,269.87 C729.87,268.79 730.40,267.67 730.93,266.53 L 730.93 266.52 C734.20,259.56 737.18,252.50 739.83,245.47 L 739.83 245.47 C743.00,237.31 745.40,230.26 745.90,227.27 ZM 487.49 363.99 C480.11,356.86 475.00,352.16 475.00,352.57 C475.00,352.68 475.15,352.91 475.42,353.27 C474.97,352.78 474.57,352.35 474.23,351.99 C474.46,351.96 474.66,351.90 474.80,351.83 C477.24,353.95 482.05,358.55 487.49,363.99 ZM 464.98 341.48 C464.48,340.87 464.23,340.52 464.25,340.38 C465.78,341.85 466.68,342.66 466.75,342.58 C466.85,342.48 466.34,341.74 465.41,340.60 C466.29,340.95 467.00,341.62 467.00,342.11 C467.00,343.39 466.42,343.21 464.98,341.48 ZM 447.94 323.75 C448.90,324.75 449.84,325.74 450.77,326.70 C443.58,319.30 434.02,309.29 423.65,298.25 C428.33,303.20 438.69,314.08 447.94,323.75 ZM 525.52 405.50 C519.99,400.08 513.23,392.88 508.38,387.39 C513.59,393.21 520.54,400.55 525.06,405.00 C526.79,406.70 528.52,408.50 530.11,410.24 C528.65,408.66 527.09,407.03 525.52,405.50 ZM 670.59 555.26 C668.59,554.77 667.15,553.62 666.12,551.69 C666.90,553.15 668.74,554.50 670.59,555.26 ZM 337.57 683.67 C337.63,684.57 337.70,685.43 337.76,686.02 C337.13,685.77 337.08,684.98 337.57,683.67 ZM 675.33 556.65 C675.39,557.16 675.40,557.84 675.37,558.60 C675.34,559.12 675.34,559.60 675.38,560.03 C675.07,558.88 675.04,557.70 675.33,556.65 ZM 485.56 363.51 L 485.62 363.57 C487.58,365.40 489.91,367.69 492.34,370.14 C490.16,368.04 487.83,365.75 485.56,363.51 ZM 462.37 337.15 C461.88,336.61 461.37,336.06 460.83,335.49 C460.02,334.63 459.22,333.77 458.46,332.94 C459.42,333.94 460.51,335.09 461.74,336.36 C461.97,336.63 462.18,336.90 462.37,337.15 ZM 460.00 545.50 L 459.96 545.47 C459.06,544.65 458.43,543.57 458.37,542.82 C458.52,543.53 459.14,544.56 460.00,545.50 ZM 683.20 572.74 C683.81,573.78 684.47,574.62 685.02,575.00 L 685.00 574.99 C684.49,574.76 683.81,573.88 683.20,572.74 ZM 655.34 534.76 C654.58,534.98 654.21,535.48 654.22,536.09 C654.15,535.41 654.51,534.87 655.34,534.76 ZM 458.53 541.89 C458.59,541.31 458.36,540.72 457.94,540.46 C457.06,539.92 457.09,539.28 457.57,538.90 C457.10,539.28 457.10,539.94 458.00,540.50 C458.48,540.80 458.69,541.38 458.53,541.89 ZM 663.64 753.77 C663.53,753.48 663.22,752.78 662.79,751.89 C662.55,751.39 662.28,750.82 661.99,750.22 L 663.72 753.80 ZM 288.83 761.84 C289.10,761.15 289.32,760.50 289.50,759.90 C289.33,760.54 289.10,761.20 288.83,761.84 ZM 536.13 417.52 C536.45,417.99 536.70,418.39 536.86,418.72 C537.55,420.06 538.45,421.42 539.29,422.43 C538.45,421.42 537.54,420.06 536.86,418.72 C536.69,418.39 536.44,417.98 536.13,417.52 ZM 453.82 327.43 C453.83,327.46 453.84,327.49 453.85,327.51 C453.81,327.45 453.77,327.40 453.74,327.35 Z" fill="rgb(254,254,254)"/>
<path d="M 475.00 351.56 C475.00,351.32 474.55,350.84 474.00,350.50 C473.45,350.16 473.00,350.36 473.00,350.94 C473.00,351.52 473.45,352.00 474.00,352.00 C474.08,352.00 474.16,352.00 474.23,351.99 C474.57,352.35 474.97,352.78 475.42,353.27 C476.71,354.91 480.77,359.03 485.56,363.51 C487.83,365.75 490.16,368.04 492.34,370.14 C497.14,374.98 502.32,380.48 505.82,384.50 C506.60,385.40 507.46,386.37 508.38,387.39 C513.23,392.88 519.99,400.08 525.52,405.50 C527.08,407.03 528.65,408.65 530.10,410.24 L 530.11 410.24 C532.71,413.08 534.92,415.75 536.13,417.52 C536.44,417.98 536.69,418.39 536.86,418.72 C537.54,420.06 538.45,421.42 539.29,422.43 C539.91,423.17 540.49,423.73 540.94,423.97 C542.98,425.06 543.37,428.97 541.56,430.21 C540.96,430.62 543.55,433.78 547.76,437.77 C555.89,445.48 557.22,449.00 552.00,449.00 C550.35,449.00 549.00,449.37 549.00,449.82 C549.00,450.27 547.65,452.15 546.00,454.00 C542.42,458.01 542.21,459.75 545.25,460.18 C547.17,460.45 547.54,461.20 547.80,465.22 C548.18,471.08 546.81,473.77 543.25,474.18 C541.11,474.43 540.25,475.27 539.37,478.00 L 538.25 481.50 L 529.32 482.00 C519.94,482.54 516.40,483.95 512.68,488.69 C511.67,489.96 508.76,492.23 506.19,493.73 C501.29,496.61 496.44,501.49 494.12,505.88 C493.35,507.32 490.65,510.70 488.12,513.40 C485.58,516.09 482.49,519.37 481.25,520.69 C480.01,522.01 479.00,523.71 479.00,524.48 C479.00,525.24 477.65,526.83 476.00,528.00 C474.35,529.17 473.00,530.92 473.00,531.87 C473.00,532.82 472.45,534.15 471.77,534.83 C470.79,535.81 470.98,536.18 472.67,536.63 C475.16,537.28 475.90,539.33 475.24,543.81 C474.70,547.47 473.10,547.87 470.49,544.99 C469.50,543.89 468.45,543.21 468.18,543.49 C467.90,543.76 467.16,542.98 466.53,541.74 C465.88,540.47 464.56,539.57 463.48,539.67 C462.44,539.77 460.80,539.43 459.85,538.92 C458.92,538.42 458.03,538.53 457.57,538.90 C457.09,539.28 457.06,539.92 457.94,540.46 C458.36,540.72 458.59,541.31 458.53,541.89 C458.50,541.98 458.46,542.06 458.41,542.14 C458.32,542.30 458.31,542.53 458.37,542.82 C458.43,543.57 459.06,544.65 459.96,545.47 L 460.00 545.50 C460.02,545.53 460.05,545.55 460.07,545.57 C461.32,546.90 462.05,548.28 461.70,548.63 C461.64,548.70 461.60,548.80 461.60,548.94 C461.49,548.98 461.35,549.00 461.18,549.00 C460.73,549.00 459.46,547.99 458.36,546.75 C457.27,545.51 423.49,511.88 383.30,472.00 C343.11,432.12 308.38,397.02 306.11,394.00 C288.23,370.08 277.94,350.34 271.71,328.00 C267.97,314.57 267.91,312.47 268.21,213.00 L 268.50 115.50 L 288.00 115.69 C298.73,115.80 357.79,115.91 419.25,115.94 C480.71,115.97 531.00,116.34 531.00,116.75 C530.99,117.16 528.97,118.33 526.50,119.35 C522.38,121.04 520.52,123.00 523.04,123.00 C523.74,123.00 523.73,123.64 523.00,125.00 C522.41,126.10 521.11,127.00 520.10,127.00 C519.10,127.00 517.20,128.06 515.89,129.36 C514.57,130.66 512.04,132.47 510.25,133.39 C508.46,134.30 507.00,135.46 507.00,135.95 C507.00,137.66 503.85,140.00 501.55,140.00 C499.15,140.00 497.40,142.95 496.80,147.99 C496.61,149.54 495.75,150.62 494.50,150.86 C493.41,151.07 491.43,152.09 490.12,153.12 C488.81,154.15 486.64,155.00 485.32,155.00 C481.69,155.00 477.95,157.31 473.46,162.32 C470.46,165.68 468.41,167.01 465.46,167.55 C460.84,168.38 459.00,169.61 458.99,171.87 C458.98,173.74 447.93,186.00 446.26,186.00 C444.23,186.00 442.00,189.10 440.91,193.45 C439.76,198.00 439.06,198.56 430.65,201.60 C427.64,202.68 425.40,204.22 424.75,205.64 C423.74,207.86 423.61,207.88 420.92,206.29 C418.29,204.74 417.90,204.77 413.82,206.76 C411.44,207.92 408.02,209.42 406.21,210.07 C404.40,210.73 402.47,212.13 401.91,213.17 C400.94,214.98 391.11,220.00 388.53,220.00 C387.86,220.00 386.54,220.85 385.61,221.88 C384.67,222.91 382.12,224.05 379.93,224.40 C376.84,224.89 375.68,225.65 374.78,227.77 C372.86,232.29 369.88,235.00 366.83,235.00 C365.27,235.00 364.00,235.23 364.00,235.52 C364.00,236.54 379.67,254.57 390.01,265.44 C395.79,271.52 404.33,280.55 408.98,285.50 C421.75,299.10 472.11,350.00 472.79,350.00 C473.12,350.00 471.87,348.42 470.00,346.50 C468.73,345.19 467.71,344.04 467.28,343.44 C471.69,347.91 476.40,352.68 481.42,357.74 C484.79,361.15 488.07,364.45 491.20,367.59 C489.91,366.34 488.68,365.14 487.49,363.99 C482.05,358.55 477.24,353.95 474.80,351.83 C474.92,351.75 475.00,351.66 475.00,351.56 ZM 501.67 514.33 C501.30,513.97 501.00,510.79 501.00,507.27 C501.00,500.88 501.00,500.87 503.75,501.18 C506.31,501.48 506.52,501.86 506.80,506.63 C507.01,510.33 506.64,512.21 505.48,513.38 C503.73,515.13 502.72,515.38 501.67,514.33 ZM 509.49 496.99 C508.76,495.80 509.81,492.00 510.88,492.00 C512.79,492.00 515.28,494.84 514.69,496.36 C514.00,498.16 510.48,498.59 509.49,496.99 ZM 288.83 761.84 C288.23,763.24 287.42,764.56 286.51,765.40 C286.36,765.54 286.20,765.73 286.03,765.95 C285.43,766.18 285.00,765.75 285.00,764.53 C285.00,762.50 288.19,756.00 289.19,756.00 C289.33,756.00 289.46,756.04 289.56,756.11 C289.98,756.92 289.91,758.36 289.50,759.90 C289.32,760.50 289.10,761.15 288.83,761.84 ZM 317.00 749.56 C317.00,746.91 318.69,745.25 319.98,746.64 C320.99,747.71 319.43,752.00 318.03,752.00 C317.46,752.00 317.00,750.90 317.00,749.56 ZM 449.19 529.23 C448.53,529.01 448.24,528.42 448.55,527.91 C448.86,527.41 448.44,527.00 447.62,527.00 C446.79,527.00 445.86,527.42 445.54,527.94 C444.81,529.11 448.11,531.05 449.43,530.23 C450.01,529.88 449.91,529.47 449.19,529.23 ZM 452.00 182.00 C452.00,181.45 452.45,181.00 453.00,181.00 C453.55,181.00 454.00,181.45 454.00,182.00 C454.00,182.55 453.55,183.00 453.00,183.00 C452.45,183.00 452.00,182.55 452.00,182.00 ZM 428.68 303.56 C426.67,301.43 424.94,299.61 423.65,298.25 C423.42,298.01 423.20,297.76 422.97,297.52 C418.21,292.46 414.23,287.64 411.99,284.35 C414.60,288.04 419.91,294.18 428.68,303.56 ZM 447.94 323.75 C446.40,322.15 444.84,320.51 443.28,318.87 C448.24,324.01 453.84,329.76 460.13,336.16 C457.87,333.94 454.67,330.71 450.77,326.70 C449.84,325.74 448.90,324.75 447.94,323.75 ZM 453.79 327.43 C452.99,326.51 452.21,325.60 451.42,324.69 C450.83,323.99 450.10,322.97 449.34,321.81 C450.45,323.49 451.61,324.93 453.74,327.35 C453.76,327.37 453.78,327.40 453.79,327.43 ZM 464.26 340.36 L 464.58 340.69 C464.48,340.59 464.37,340.49 464.25,340.38 C464.25,340.37 464.25,340.37 464.26,340.36 Z" fill="rgb(82,47,250)"/>
<path d="M 433.00 888.61 C433.00,886.57 430.42,885.90 424.62,886.43 C421.18,886.74 420.48,886.65 422.50,886.15 C424.15,885.74 427.18,884.64 429.23,883.70 C435.17,880.98 435.53,875.07 429.75,875.02 C428.79,875.01 428.00,874.55 428.00,874.00 C428.00,873.43 431.00,873.00 435.00,873.00 C439.00,873.00 442.00,872.57 442.00,872.00 C442.00,871.38 447.00,871.00 455.00,871.00 C462.15,871.00 468.00,870.60 468.00,870.11 C468.00,869.62 469.11,868.94 470.46,868.60 C472.25,868.15 472.75,867.52 472.29,866.32 C471.81,865.06 472.06,864.81 473.33,865.29 C474.25,865.65 475.00,865.56 475.00,865.10 C475.00,863.25 483.29,854.00 484.95,854.00 C487.44,854.00 492.00,850.20 492.00,848.13 C492.00,845.81 493.95,844.00 496.45,844.00 C497.86,844.00 498.55,843.30 498.66,841.75 C499.03,836.44 500.81,832.85 505.71,827.52 C508.57,824.40 511.18,821.00 511.51,819.97 C511.84,818.94 515.16,815.26 518.89,811.79 C522.62,808.33 526.21,804.49 526.87,803.26 C527.52,802.03 529.06,800.77 530.28,800.46 C531.51,800.16 533.53,798.13 534.78,795.95 C536.04,793.78 537.48,792.00 537.99,792.00 C538.50,792.00 539.73,791.16 540.71,790.13 C541.69,789.11 544.23,787.95 546.34,787.57 L 550.17 786.88 L 549.51 782.08 C548.75,776.56 550.91,770.00 553.48,770.00 C554.35,770.00 555.94,768.52 557.01,766.71 C558.12,764.82 560.35,762.91 562.25,762.23 C565.87,760.92 568.82,756.74 570.08,751.15 C571.12,746.54 569.82,745.00 564.92,745.00 C562.59,745.00 560.57,744.37 559.79,743.39 C557.78,740.88 553.47,736.77 549.59,733.68 C546.11,730.90 537.00,728.42 523.23,726.53 C520.00,726.09 517.62,725.18 517.03,724.16 C516.16,722.67 516.06,722.69 516.03,724.36 C516.00,726.04 515.82,726.00 514.18,723.98 C512.58,721.99 511.37,721.71 503.91,721.58 C496.16,721.44 494.91,721.12 488.82,717.72 C483.55,714.77 481.11,714.00 477.02,714.00 C473.32,714.00 470.65,713.29 467.61,711.51 C464.05,709.43 461.64,708.72 455.90,708.07 C455.57,708.03 454.36,707.18 453.21,706.18 C451.78,704.94 447.97,703.96 441.30,703.13 C435.91,702.45 429.14,701.23 426.27,700.42 C423.39,699.61 419.86,699.25 418.43,699.61 C415.95,700.23 409.52,698.85 405.76,696.90 C404.81,696.41 401.95,696.00 399.42,696.00 C396.59,696.00 393.78,695.29 392.15,694.18 C388.40,691.59 374.76,686.48 366.50,684.55 C362.65,683.65 357.39,682.41 354.81,681.79 C350.39,680.72 349.79,680.83 344.06,683.89 C340.73,685.66 337.94,686.98 337.87,686.81 C337.80,686.64 337.67,685.21 337.57,683.64 C337.44,681.33 338.73,679.44 344.27,673.87 C348.04,670.07 351.51,667.20 351.98,667.49 C352.45,667.78 354.23,666.84 355.93,665.40 C357.82,663.81 361.66,662.20 365.77,661.28 C369.47,660.45 373.04,659.33 373.69,658.81 C375.41,657.43 398.23,658.88 399.50,660.44 C401.21,662.55 404.73,664.00 408.18,664.02 C410.01,664.03 413.46,664.93 415.86,666.02 C418.26,667.11 421.05,668.00 422.08,668.00 C423.10,668.00 425.41,668.63 427.22,669.41 C429.02,670.18 432.75,671.51 435.50,672.36 C442.85,674.64 448.87,676.88 452.07,678.54 C453.63,679.34 456.86,680.00 459.26,680.00 C461.66,680.00 464.49,680.66 465.56,681.47 C466.63,682.28 469.30,682.95 471.51,682.97 C473.71,682.99 477.09,683.47 479.01,684.05 C480.93,684.63 484.91,685.51 487.86,686.01 C491.09,686.57 494.67,688.04 496.86,689.72 C499.58,691.80 502.14,692.68 507.00,693.21 C517.88,694.39 521.34,695.19 523.98,697.15 C525.45,698.23 529.35,699.36 533.23,699.83 C536.92,700.27 540.74,701.30 541.72,702.11 C544.15,704.13 547.65,705.69 553.00,707.14 C555.47,707.81 557.72,708.43 558.00,708.51 C558.28,708.59 560.30,708.99 562.50,709.40 C564.70,709.80 568.29,711.09 570.48,712.26 C572.67,713.43 576.27,714.72 578.48,715.12 C580.69,715.52 584.30,716.36 586.50,716.99 C588.70,717.62 591.62,718.40 593.00,718.72 C594.38,719.04 596.74,720.33 598.25,721.59 C599.86,722.92 602.99,724.13 605.75,724.47 C608.36,724.80 611.62,725.71 613.00,726.49 C619.26,730.06 627.85,734.00 629.37,734.00 C631.48,734.00 646.82,742.81 649.50,745.55 C652.40,748.54 657.04,751.54 660.61,752.75 L 663.72 753.80 L 661.89 750.02 C660.89,747.94 658.59,745.00 656.78,743.48 C654.98,741.97 649.93,736.85 645.57,732.12 L 637.65 723.50 L 647.79 733.45 C653.37,738.92 658.19,743.14 658.50,742.84 C658.81,742.53 653.79,736.79 647.34,730.09 C640.90,723.39 634.81,716.58 633.83,714.95 C632.84,713.33 631.35,712.00 630.51,712.00 C629.68,712.00 629.00,711.62 629.00,711.16 C629.00,710.69 627.88,709.00 626.50,707.41 C625.13,705.81 624.00,704.27 624.00,703.98 C624.00,703.70 621.75,701.99 619.00,700.19 C616.25,698.39 614.00,696.40 614.00,695.75 C614.00,695.11 612.37,692.92 610.39,690.88 C608.40,688.85 607.07,686.69 607.44,686.09 C608.65,684.14 612.67,684.93 614.60,687.50 C615.63,688.88 617.19,690.00 618.06,690.00 C620.45,690.00 624.20,694.80 623.51,696.98 C623.18,698.00 623.39,699.13 623.98,699.48 C624.56,699.84 624.80,700.52 624.51,700.99 C624.00,701.81 625.42,702.23 633.14,703.56 C637.71,704.34 639.25,702.45 636.03,700.02 C633.51,698.12 634.02,696.10 637.91,692.58 C639.07,691.53 640.00,689.46 640.00,687.91 C640.00,685.06 642.84,683.16 645.07,684.54 C645.66,684.91 647.13,684.35 648.32,683.29 C649.52,682.23 651.74,680.60 653.25,679.66 C654.76,678.72 656.00,677.28 656.00,676.45 C656.00,674.87 663.69,666.00 665.06,666.00 C665.51,666.00 667.09,665.54 668.58,664.97 C671.18,663.98 671.21,663.88 669.40,662.54 C667.54,661.17 667.54,661.13 669.50,660.40 C672.10,659.42 675.74,655.56 676.19,653.28 C676.42,652.17 677.29,651.60 678.52,651.76 C679.72,651.92 681.09,651.08 682.00,649.64 C686.48,642.49 689.05,639.20 691.32,637.71 C692.70,636.80 696.75,633.23 700.31,629.78 C703.87,626.33 709.01,621.57 711.73,619.21 C716.22,615.32 716.62,614.63 716.09,611.67 C715.35,607.59 712.38,603.77 708.49,601.91 C706.06,600.75 705.44,599.77 705.18,596.66 C704.96,593.93 704.48,592.98 703.51,593.36 C700.89,594.36 696.27,588.25 696.92,584.65 C697.30,582.50 695.68,580.07 693.21,579.10 C691.72,578.51 689.71,577.57 688.75,577.01 C687.79,576.46 686.21,575.61 685.25,575.14 C684.29,574.67 682.83,572.45 682.00,570.20 C681.17,567.95 679.31,565.19 677.85,564.06 C675.82,562.49 675.24,561.22 675.37,558.60 C675.45,556.71 675.23,555.36 674.87,555.58 C672.88,556.81 667.61,554.46 666.12,551.69 C665.23,550.04 663.83,547.93 663.00,547.01 C660.58,544.30 658.63,540.65 660.08,541.55 C660.81,542.00 661.05,541.89 660.68,541.28 C660.33,540.72 658.66,539.69 656.98,538.99 C653.56,537.58 653.23,534.50 656.51,534.64 C658.90,534.74 674.50,549.38 673.66,550.74 C672.92,551.93 678.52,557.42 679.71,556.68 C680.94,555.92 716.23,591.86 723.50,601.27 C730.49,610.31 732.19,613.06 739.06,626.38 C744.50,636.93 749.46,649.07 750.49,654.30 C750.83,656.06 751.52,658.40 752.02,659.50 C753.21,662.11 754.93,670.72 756.02,679.50 C756.49,683.35 756.90,727.79 756.92,778.25 C756.95,854.64 756.73,870.00 755.61,870.00 C754.69,870.00 754.03,872.02 753.55,876.24 C752.79,882.95 752.03,883.96 747.70,883.98 C745.53,884.00 744.62,883.33 743.64,880.98 C742.94,879.32 742.07,878.26 741.71,878.62 C741.35,878.98 740.60,878.09 740.05,876.64 C739.13,874.20 737.11,873.22 735.78,874.56 C735.47,874.86 735.70,876.40 736.30,877.98 C737.82,882.02 735.93,884.01 730.63,883.95 C720.85,883.84 705.82,884.90 702.69,885.94 C700.47,886.67 698.44,886.74 696.84,886.13 C694.63,885.29 671.87,885.38 628.50,886.39 C620.25,886.58 610.91,886.80 607.75,886.87 C603.36,886.97 602.00,887.36 602.00,888.50 C602.00,889.82 591.94,890.00 517.50,890.00 C445.94,890.00 433.00,889.79 433.00,888.61 ZM 504.75 814.42 C503.33,812.99 503.94,806.96 505.57,806.34 C508.30,805.29 508.97,807.33 507.20,811.33 C506.26,813.44 505.16,814.83 504.75,814.42 ZM 652.00 678.00 C652.00,677.45 652.45,677.00 653.00,677.00 C653.55,677.00 654.00,677.45 654.00,678.00 C654.00,678.55 653.55,679.00 653.00,679.00 C652.45,679.00 652.00,678.55 652.00,678.00 ZM 357.00 662.12 C357.00,661.57 357.45,660.84 358.00,660.50 C358.55,660.16 359.00,660.33 359.00,660.88 C359.00,661.43 358.55,662.16 358.00,662.50 C357.45,662.84 357.00,662.67 357.00,662.12 ZM 481.42 357.74 C428.23,304.06 409.94,284.25 410.02,280.45 C410.05,279.25 418.32,271.79 423.18,268.58 C425.51,267.05 427.66,266.36 429.02,266.72 C430.84,267.19 431.12,266.90 430.84,264.89 C430.54,262.77 431.16,262.29 436.31,260.66 C440.60,259.30 442.36,258.19 443.03,256.41 C443.54,255.09 444.76,254.00 445.75,254.00 C448.46,254.00 452.00,251.14 452.00,248.96 C452.00,247.70 453.21,246.52 455.50,245.56 C457.42,244.76 459.00,243.63 459.00,243.05 C459.00,242.47 460.18,242.00 461.62,242.00 C463.71,242.00 464.13,241.61 463.73,240.07 C463.31,238.47 463.90,238.02 467.11,237.48 C469.25,237.12 471.00,236.47 471.00,236.03 C471.00,234.19 477.61,228.98 480.68,228.40 C482.50,228.06 484.00,227.40 484.00,226.94 C484.00,225.15 491.24,220.70 494.78,220.31 C496.83,220.08 499.50,219.25 500.71,218.45 C501.93,217.65 503.57,217.00 504.36,217.00 C506.00,217.00 507.00,214.89 507.00,211.44 C507.00,208.95 509.56,206.77 514.00,205.48 C519.00,204.04 524.92,200.96 526.19,199.14 C526.91,198.11 528.97,196.95 530.77,196.55 C533.21,196.01 534.54,194.87 535.98,192.03 C537.67,188.72 538.54,188.12 542.67,187.36 C546.57,186.65 547.51,186.05 548.00,184.00 C548.32,182.62 549.80,180.91 551.29,180.20 C552.78,179.48 554.00,178.47 554.00,177.95 C554.00,177.43 554.42,177.00 554.92,177.00 C556.39,177.00 562.00,170.99 562.00,169.42 C562.00,168.64 562.57,168.00 563.26,168.00 C563.96,168.00 564.97,167.00 565.51,165.78 C566.06,164.56 567.62,163.31 568.99,162.99 C570.36,162.67 571.96,161.47 572.53,160.31 C574.44,156.49 576.03,155.22 579.79,154.52 C584.26,153.69 590.00,150.33 590.00,148.55 C590.00,147.81 591.73,146.98 593.98,146.62 C596.58,146.20 598.50,145.17 599.49,143.66 C600.33,142.38 602.10,140.75 603.43,140.04 C604.75,139.33 605.62,138.16 605.34,137.45 C604.80,136.03 608.33,133.66 609.40,134.73 C609.76,135.09 611.37,133.95 612.97,132.19 C615.75,129.15 616.23,129.00 623.38,129.00 C627.62,129.00 631.17,128.54 631.54,127.93 C632.49,126.39 632.03,126.16 624.92,124.60 C621.39,123.83 619.62,123.12 621.00,123.03 C623.31,122.87 623.35,122.79 621.50,122.00 C619.82,121.28 620.03,121.13 622.75,121.07 C624.54,121.03 626.00,120.56 626.00,120.01 C626.00,119.47 627.80,118.74 630.00,118.38 C632.20,118.03 634.00,117.35 634.00,116.87 C634.00,116.39 642.10,116.00 652.00,116.00 C662.07,116.00 670.00,116.40 670.00,116.90 C670.00,117.40 678.34,117.96 688.54,118.15 C703.66,118.44 707.25,118.78 708.02,120.00 C708.72,121.12 708.39,121.77 706.73,122.54 C705.50,123.11 701.59,126.42 698.03,129.90 C694.47,133.38 688.99,137.97 685.84,140.11 C682.70,142.24 679.84,144.44 679.50,145.00 C679.16,145.55 678.03,146.00 677.00,146.00 C675.96,146.00 674.52,146.85 673.79,147.89 C673.06,148.93 670.79,150.48 668.73,151.34 C666.68,152.20 665.00,153.37 665.00,153.95 C665.00,154.56 662.68,155.00 659.52,155.00 C654.82,155.00 653.56,155.43 650.77,157.98 C648.31,160.23 647.82,161.18 648.80,161.82 C650.47,162.93 648.70,164.54 644.70,165.54 C642.89,165.99 641.42,167.34 640.54,169.37 C639.22,172.38 639.16,172.40 639.05,170.00 C638.94,167.62 638.89,167.59 637.81,169.50 C637.18,170.60 636.35,171.73 635.95,172.00 C635.56,172.27 635.06,173.40 634.85,174.50 C634.62,175.68 633.67,176.50 632.52,176.50 C631.09,176.50 630.33,177.52 629.66,180.36 C628.94,183.42 628.05,184.50 625.31,185.64 C622.10,186.99 607.46,196.55 603.92,199.63 C603.05,200.38 601.19,201.00 599.78,201.00 C598.37,201.00 596.95,201.68 596.64,202.50 C596.31,203.34 594.83,204.00 593.23,204.00 C589.80,204.00 588.00,205.62 588.00,208.70 C588.00,210.41 587.43,211.00 585.75,211.02 C584.03,211.03 583.83,211.24 584.92,211.93 C585.89,212.54 584.87,212.83 581.76,212.83 C576.38,212.83 573.39,214.20 572.48,217.06 C572.12,218.19 570.73,219.53 569.40,220.04 C567.27,220.85 567.12,221.21 568.20,222.94 C569.30,224.71 568.84,225.46 563.96,229.95 C560.70,232.96 557.19,235.24 555.25,235.61 C553.46,235.95 550.98,237.38 549.75,238.79 C545.29,243.88 539.64,249.00 538.49,249.00 C537.84,249.00 536.50,249.90 535.50,251.00 C534.31,252.31 532.42,253.00 530.01,253.00 C525.51,253.00 524.61,253.75 526.67,255.81 C528.11,257.25 527.99,257.60 525.37,259.69 C523.79,260.96 521.47,261.99 520.22,262.00 C518.67,262.00 517.27,263.13 515.87,265.50 C514.63,267.59 513.02,269.00 511.86,269.00 C510.79,269.00 508.85,270.06 507.55,271.36 C505.88,273.03 503.66,273.87 500.01,274.23 C494.01,274.80 491.14,277.09 490.11,282.13 C489.55,284.86 488.86,285.59 486.47,286.01 C484.53,286.34 483.07,287.45 482.21,289.25 C481.43,290.88 479.80,292.23 478.20,292.58 C476.71,292.90 474.20,293.58 472.60,294.08 C471.01,294.59 468.23,295.00 466.42,295.00 C463.79,295.00 463.08,295.44 462.82,297.24 C462.58,298.93 461.65,299.61 458.97,300.04 C454.29,300.80 453.37,301.45 450.45,306.08 C448.92,308.50 447.21,310.00 445.99,310.00 C444.89,310.00 444.00,310.66 444.00,311.46 C444.00,313.02 448.87,321.71 451.42,324.69 C460.07,334.79 469.24,344.44 491.91,367.30 C522.64,398.27 519.46,395.00 518.83,395.00 C518.56,395.00 501.72,378.23 481.42,357.74 ZM 609.57 129.11 C609.27,128.63 609.73,127.64 610.59,126.93 C611.88,125.86 612.30,125.87 613.01,127.02 C613.48,127.78 613.65,128.76 613.38,129.20 C612.71,130.27 610.25,130.22 609.57,129.11 Z" fill="rgb(57,26,217)"/>
</g>
</svg>